<svg xmlns="http://www.w3.org/2000/svg" width="256" height="256" viewBox="0 0 100 100"><rect width="100" height="100" rx="20" fill="#7d6ee7"></rect><path fill="#fff" d="M11.41 72.65L11.41 72.65Q11.06 72.79 10.35 72.97Q9.64 73.15 8.78 73.15L8.78 73.15Q5.73 73.15 5.73 70.59L5.73 70.59L5.73 26.78Q6.09 26.64 6.83 26.46Q7.58 26.29 8.43 26.29L8.43 26.29Q11.41 26.29 11.41 28.84L11.41 28.84L11.41 41.62Q13.12 40.63 15.42 39.85Q17.73 39.07 20.64 39.07L20.64 39.07Q23.62 39.07 26.07 39.85Q28.52 40.63 30.30 42.23Q32.07 43.82 33.07 46.27Q34.06 48.72 34.06 51.99L34.06 51.99L34.06 72.65Q33.71 72.79 32.96 72.97Q32.21 73.15 31.43 73.15L31.43 73.15Q28.38 73.15 28.38 70.59L28.38 70.59L28.38 52.13Q28.38 47.87 26.04 45.81Q23.69 43.75 19.86 43.75L19.86 43.75Q17.38 43.75 15.21 44.64Q13.04 45.53 11.41 46.80L11.41 46.80L11.41 72.65ZM55.93 73.71L55.93 73.71Q50.96 73.71 47.87 71.51Q44.78 69.31 44.78 64.20L44.78 64.20L44.78 30.47Q45.14 30.33 45.88 30.16Q46.63 29.98 47.48 29.98L47.48 29.98Q50.46 29.98 50.46 32.53L50.46 32.53L50.46 40.70L62.11 40.70Q62.32 41.05 62.53 41.66Q62.74 42.26 62.74 42.97L62.74 42.97Q62.74 45.38 60.61 45.38L60.61 45.38L50.46 45.38L50.46 63.84Q50.46 66.69 52.06 67.86Q53.66 69.03 56.57 69.03L56.57 69.03Q57.77 69.03 59.27 68.60Q60.76 68.18 61.75 67.61L61.75 67.61Q62.18 68.03 62.53 68.67Q62.89 69.31 62.89 70.16L62.89 70.16Q62.89 71.73 61.04 72.72Q59.19 73.71 55.93 73.71ZM94.27 64.06L94.27 64.06Q94.27 68.60 90.93 71.16Q87.59 73.71 81.28 73.71L81.28 73.71Q78.58 73.71 76.31 73.25Q74.03 72.79 72.44 72.05Q70.84 71.30 69.95 70.34Q69.06 69.38 69.06 68.39L69.06 68.39Q69.06 67.54 69.53 66.76Q69.99 65.97 70.91 65.41L70.91 65.41Q72.83 66.83 75.38 67.93Q77.94 69.03 81.20 69.03L81.20 69.03Q88.59 69.03 88.59 64.06L88.59 64.06Q88.59 60.01 83.69 58.80L83.69 58.80L77.80 57.24Q73.47 56.11 71.48 53.94Q69.49 51.77 69.49 48.37L69.49 48.37Q69.49 46.52 70.23 44.82Q70.98 43.11 72.54 41.83Q74.10 40.56 76.41 39.81Q78.72 39.07 81.84 39.07L81.84 39.07Q86.81 39.07 89.87 40.52Q92.92 41.98 92.92 43.89L92.92 43.89Q92.92 44.82 92.46 45.53Q92.00 46.24 91.22 46.59L91.22 46.59Q89.94 45.74 87.59 44.75Q85.25 43.75 82.06 43.75L82.06 43.75Q78.86 43.75 76.98 44.96Q75.10 46.17 75.10 48.37L75.10 48.37Q75.10 50.00 76.16 51.14Q77.23 52.27 79.71 52.84L79.71 52.84L84.61 54.05Q89.44 55.25 91.85 57.63Q94.27 60.01 94.27 64.06Z"></path></svg>

